<?xml version="1.0" encoding="utf-8"?>
<!-- Generator: Adobe Illustrator 19.1.0, SVG Export Plug-In . SVG Version: 6.00 Build 0)  -->
<svg version="1.1" id="Layer_1" xmlns="http://www.w3.org/2000/svg" xmlns:xlink="http://www.w3.org/1999/xlink" x="0px" y="0px"
	 viewBox="0 0 382.9 204" style="enable-background:new 0 0 382.9 204;" xml:space="preserve">
<style type="text/css">
	.st0{clip-path:url(#SVGID_2_);fill:#8C2E8A;}
</style>
<g>
	<defs>
		<rect id="SVGID_1_" x="-434.5" width="817.4" height="204"/>
	</defs>
	<clipPath id="SVGID_2_">
		<use xlink:href="#SVGID_1_"  style="overflow:visible;"/>
	</clipPath>
	<path class="st0" d="M382.9,1.7h-39.2v200.6h39.2V1.7z M327.1,202.3L255.8,81.4l66.5-79.7h-47.6L204,89V1.7h-39.2v200.6H204V142
		l25.9-31l51.6,91.3H327.1z M147.6,143.1c0-17.7-4.8-32.4-15.5-42.5c-8.5-7.9-20-13-38.3-15.5l-23.7-3.4c-8.2-1.1-14.6-4.2-18.6-7.9
		c-4.2-3.9-5.9-9.3-5.9-14.4c0-13.8,10.1-25.4,31-25.4c13.2,0,28.5,1.7,41.1,13.8l24.8-24.5C125.4,6.8,105.4,0,77.8,0
		C34.4,0,7.9,25.1,7.9,60.9c0,16.9,4.8,29.9,14.4,39.4c9,8.7,21.7,14.1,38.9,16.6l24.2,3.4c9.3,1.4,13.8,3.4,17.7,7
		c4.2,3.9,6.2,9.9,6.2,16.9c0,16.1-12.4,24.8-35.5,24.8c-18.6,0-35.8-4.2-48.5-16.9L0,177.5c19.7,20,42.8,26.5,73.2,26.5
		C115.2,204,147.6,182,147.6,143.1"/>
</g>
</svg>
