<?xml version="1.0" encoding="utf-8"?>
<!-- Generator: Adobe Illustrator 19.1.0, SVG Export Plug-In . SVG Version: 6.00 Build 0)  -->
<svg version="1.1" id="Layer_1" xmlns="http://www.w3.org/2000/svg" xmlns:xlink="http://www.w3.org/1999/xlink" x="0px" y="0px"
	 viewBox="0 0 285 200" style="enable-background:new 0 0 285 200;" xml:space="preserve">
<style type="text/css">
	.st0{fill:#303847;}
	.st1{clip-path:url(#SVGID_2_);fill:#303847;}
	.st2{clip-path:url(#SVGID_4_);fill:#303847;}
	.st3{clip-path:url(#SVGID_6_);fill:#303847;}
	.st4{fill:#8C2E8A;}
	.st5{clip-path:url(#SVGID_8_);fill:#8C2E8A;}
</style>
<path class="st0" d="M32,31.1l-4.8,13.7h9.2L32,31.1z M42.3,63.1l-2.5-7.7H23.6L21,63.1H7.4l19.2-51.5h10l19.2,51.5H42.3z"/>
<g>
	<defs>
		<rect id="SVGID_1_" x="-210" y="3" width="491.3" height="206.4"/>
	</defs>
	<clipPath id="SVGID_2_">
		<use xlink:href="#SVGID_1_"  style="overflow:visible;"/>
	</clipPath>
	<path class="st1" d="M74.5,63.5c-8.1,0-14.7-1.4-20.1-6.8l8.3-8.1c2.7,2.7,7.6,3.6,11.8,3.6c5.1,0,7.6-1.7,7.6-4.6
		c0-1.2-0.3-2.2-1-3c-0.7-0.7-1.8-1.2-3.5-1.4l-6.4-0.9c-4.7-0.7-8.3-2.2-10.6-4.6c-2.5-2.5-3.6-5.9-3.6-10.3
		c0-9.4,7.3-16.3,19.3-16.3c7.6,0,13.3,1.7,17.8,6.1l-8.2,8c-3.3-3.3-7.7-3-10-3c-4.5,0-6.4,2.5-6.4,4.8c0,0.6,0.2,1.6,1,2.4
		c0.7,0.7,1.8,1.3,3.6,1.5l6.4,0.9c4.8,0.7,8.2,2.1,10.4,4.3c2.8,2.7,3.9,6.5,3.9,11.3C94.9,57.8,85.6,63.5,74.5,63.5"/>
	<path class="st1" d="M120.1,22.9h-7.4v10.4h7.4c3.6,0,5.6-2.5,5.6-5.2C125.8,25.4,123.7,22.9,120.1,22.9 M120.7,44.7h-8v18.4h-13
		V11.6h21c11.7,0,18.1,8.1,18.1,16.6S132.5,44.7,120.7,44.7"/>
</g>
<polygon class="st0" points="142.7,63.1 142.7,11.6 178.7,11.6 178.7,22.8 155.7,22.8 155.7,31.4 175.3,31.4 175.3,42.7 155.7,42.7 
	155.7,51.8 178.7,51.8 178.7,63.1 "/>
<polygon class="st0" points="214.1,63.1 197.2,37.2 197.2,63.1 184.2,63.1 184.2,11.6 195.5,11.6 212.5,37.5 212.5,11.6 225.5,11.6 
	225.5,63.1 "/>
<g>
	<defs>
		<rect id="SVGID_3_" x="-210" y="3" width="491.3" height="206.4"/>
	</defs>
	<clipPath id="SVGID_4_">
		<use xlink:href="#SVGID_3_"  style="overflow:visible;"/>
	</clipPath>
	<path class="st2" d="M46.5,117.6c-4.5,4.6-9.6,5.8-15.4,5.8c-6.2,0-10.9-2-14.7-5.8C10.8,112.2,11,105,11,97.2
		c0-7.7-0.2-15,5.4-20.4c3.9-3.8,8.3-5.8,14.7-5.8c13.6,0,19.4,8.6,20.7,17.1H38.7c-1-3.9-3.1-5.8-7.6-5.8c-2.4,0-4.2,1-5.1,2.2
		c-1.2,1.5-1.9,3.3-1.9,12.7c0,9.4,0.7,11.2,1.9,12.7c1,1.2,2.7,2.2,5.1,2.2c2.8,0,4.6-0.8,5.8-2c1.5-1.4,2-3.5,2-5.5v-0.7h-7.8
		V93.3h20.7v7.2C51.8,108.8,50.5,113.6,46.5,117.6"/>
</g>
<path class="st0" d="M75,91l-4.8,13.7h9.2L75,91z M85.3,123l-2.5-7.7H66.6L64,123H50.4l19.2-51.5h10L98.9,123H85.3z"/>
<polygon class="st0" points="120.4,102 120.4,123 107.4,123 107.4,102 91.4,71.5 105.6,71.5 113.9,90 122.2,71.5 136.4,71.5 "/>
<g>
	<defs>
		<rect id="SVGID_5_" x="-210" y="3" width="491.3" height="206.4"/>
	</defs>
	<clipPath id="SVGID_6_">
		<use xlink:href="#SVGID_5_"  style="overflow:visible;"/>
	</clipPath>
	<path class="st3" d="M162.8,123.4c-8.1,0-14.7-1.4-20.1-6.8l8.3-8.1c2.8,2.7,7.6,3.6,11.8,3.6c5.1,0,7.6-1.7,7.6-4.6
		c0-1.2-0.3-2.2-1-3c-0.7-0.7-1.8-1.2-3.5-1.4l-6.4-0.9c-4.7-0.7-8.2-2.2-10.6-4.6c-2.5-2.5-3.6-5.9-3.6-10.3
		c0-9.4,7.3-16.3,19.3-16.3c7.6,0,13.3,1.7,17.8,6.1l-8.2,8c-3.3-3.3-7.7-3-10-3c-4.5,0-6.4,2.5-6.4,4.8c0,0.7,0.2,1.6,1,2.4
		c0.7,0.7,1.8,1.3,3.6,1.5l6.4,0.9c4.8,0.7,8.2,2.1,10.4,4.3c2.8,2.7,3.9,6.5,3.9,11.3C183.3,117.7,174,123.4,162.8,123.4"/>
</g>
<polygon class="st0" points="217.6,123 205.4,101.8 201,106.8 201,123 188.1,123 188.1,71.5 201,71.5 201,89.7 216.3,71.5 
	232.2,71.5 214.1,92.3 232.8,123 "/>
<rect x="236.3" y="71.5" class="st0" width="13" height="51.5"/>
<polygon class="st0" points="60.2,182.9 49.6,182.9 41,157.5 32.5,182.9 21.9,182.9 7.4,131.4 21,131.4 27.9,158.6 36.4,131.4 
	45.7,131.4 54.2,158.6 61.1,131.4 74.7,131.4 "/>
<polygon class="st0" points="77,182.9 77,131.4 113,131.4 113,142.7 90,142.7 90,151.3 109.6,151.3 109.6,162.5 90,162.5 90,171.6 
	113,171.6 113,182.9 "/>
<polygon class="st0" points="118.5,182.9 118.5,131.4 154.4,131.4 154.4,142.7 131.5,142.7 131.5,151.3 151.1,151.3 151.1,162.5 
	131.5,162.5 131.5,171.6 154.4,171.6 154.4,182.9 "/>
<polygon class="st0" points="188.8,182.9 176.7,161.8 172.2,166.7 172.2,182.9 159.3,182.9 159.3,131.4 172.2,131.4 172.2,149.6 
	187.5,131.4 203.4,131.4 185.4,152.2 204,182.9 "/>
<polygon class="st4" points="205.2,148.7 205.2,131.6 217.4,131.6 217.4,140.2 "/>
<polygon class="st4" points="229.1,183.1 229.1,144.2 217.8,153.8 217.8,141.1 229.1,131.6 241.3,131.6 241.3,183.1 "/>
<g>
	<defs>
		<rect id="SVGID_7_" x="-210" y="3" width="491.3" height="206.4"/>
	</defs>
	<clipPath id="SVGID_8_">
		<use xlink:href="#SVGID_7_"  style="overflow:visible;"/>
	</clipPath>
	<path class="st5" d="M263.6,160.9c-3,0-5.4,2-5.4,5.9c0,3.8,2.5,5.9,5.4,5.9c3,0,5.4-2,5.4-5.9
		C269.1,162.9,266.6,160.9,263.6,160.9 M263.6,183.3c-9.5,0-17.6-5.6-17.6-16.6c0-5.3,2.6-10.1,5.1-15l10.2-20.4h13.4l-10.5,20.2
		c1-0.4,2.2-0.4,3-0.4c6.5,0,14.1,5.4,14.1,15.6C281.3,177.7,273.2,183.3,263.6,183.3"/>
</g>
</svg>
