<?xml version="1.0" encoding="utf-8"?>
<!-- Generator: Adobe Illustrator 19.1.0, SVG Export Plug-In . SVG Version: 6.00 Build 0)  -->
<svg version="1.1" id="Layer_1" xmlns="http://www.w3.org/2000/svg" xmlns:xlink="http://www.w3.org/1999/xlink" x="0px" y="0px"
	 viewBox="0 0 207 207" style="enable-background:new 0 0 207 207;" xml:space="preserve">
<style type="text/css">
	.st0{clip-path:url(#SVGID_2_);fill:#8C2E8A;}
	.st1{clip-path:url(#SVGID_2_);fill:#303847;}
	.st2{fill:#303847;}
</style>
<g>
	<defs>
		<rect id="SVGID_1_" width="491.3" height="206.4"/>
	</defs>
	<clipPath id="SVGID_2_">
		<use xlink:href="#SVGID_1_"  style="overflow:visible;"/>
	</clipPath>
	<path class="st0" d="M186.7,85.6c-0.9-1.6-3.6-2.1-5.5-3.1c-0.5-0.3-1.1-0.5-1.6-0.5c-1.2,0.1-2.7-0.1-3.7,0.5
		c-3.4,2-5.5,5.1-6.1,9c-0.8,5.7,3.7,10.3,10,10.3c4.3,0,7.7-2.2,8.6-5.8C189.5,92.3,188.5,88.6,186.7,85.6"/>
	<path class="st1" d="M151.4,61.5c-1.8,0.9-3.9,2.3-5.4,3.6c-4.5,4.1-7,5.9-11.1,10.5c-2.2,2.5-4.5,4-7,6c0,0,0.5-8.8,1-11.2
		c2.1-9.9-2.3-5.8-5.9-7.2c-0.6-0.2-1.2-0.9-1.6-1.5c-2.5-3.5-3.9-6.4-8.5-4.1c-2.2,1.1-22.5,8-27.4,9.2c-0.9-1.7-1.5-3.7-2.5-5.2
		c-5.8-9-18.1-8.6-24.6,0c-1.7,2.2-4.3,5.5-5.7,7.9c-1.8,3-2.5,3.5-5.8,7c-2,2.1-2.4,3.2-0.3,5.2c1.1,1,2.4,3.1,3.6,4.1
		c0.1,0.4-0.3,0.8-0.3,0.8c-1.9,1.9-17.6,14.6-29.3,22.5C19,105.3,25.3,69.4,32,38.6c2.3-10.7,3.8-16.2,7.2-26.7
		c1.5-4.6-0.2-8-4.4-9.2c-4.5-1.3-9-1.3-13.6-0.3c-1.5,0.3-2.1,1-2,2.8c0.3,3.3-1.1,19.7-1.4,22.9C15.6,58.6,8,107.5,1.3,113.2
		c-6,5.1,10.3,16.3,15.7,11.6c7.3-6.4,17.9-16.7,33.2-29.3l1.2-1c0.5,1.1,1.9,7.6,4.5,10.3c3.4,3.5,6.6,3.5,9.5,3.4
		c3.1-0.2,6.8-1.6,10.3-4.7c6.8-6.1,8.4-11.8,10.2-29.3c0,0,6.1-3.1,10.1-4.5c-4.4,5.5-6.1,10.1-7.5,14c-1.2,3.3-2.5,10.7-0.2,13
		c5.7,5.9,17-0.7,22-8.3c3.1-4.7,5.5-8.8,6-9.2c-0.1,2-1.4,10.5-1.4,10.5c-30.6,34-45.7,56.4-45.7,70.3c0,8.3,6.9,30.8,13.8,35
		c15.4,9.4,24.9-9.1,29-16.9c8.5-16.1,12-65.7,15.5-91.3c0.4-0.4,2.3-1.5,2.9-1.4c0,0.4,0.1,1.4,0.1,1.8c0.4,4.8,2,9.3,4.3,13.4
		c2,3.6,5,5.5,9.2,5.7c6.2,0.3,11.4-1.9,15.5-6.5c4.7-5.2,7.7-11.3,8.8-18.2c0.8-5.5,0.5-10.9-2.2-15.8
		C163.2,60.4,157.1,58.5,151.4,61.5 M74.1,62.6c2.2,0.1,3.6,1,4.2,5.4c-1.2,0.8-13.3,4.2-14.7,4.3C64.2,69.9,71.6,62.5,74.1,62.6
		 M66.5,101.4c-5-1-2.8-19.2-3-20.4c5.6-1.9,10.7-3.4,15.9-4.8c0.2,5.1,0,6.3-1.9,13.8C76.9,92.8,73.1,102.7,66.5,101.4 M102.4,91.6
		c-5.2,3.5-6.4-1.1-5.4-4.3c4.8-13.1,10.4-16.5,17.1-19.4C115.1,75,107.8,88,102.4,91.6 M91.5,188.9c-6.7-4.7-7.9-27.4-8-30.4
		c-0.9-16,6-24.7,31.2-61.6C109,163.9,99,194.2,91.5,188.9 M158.6,91.3c-1.1,2.2-2.7,4.3-4.4,6.1c-0.9,1-2.4,1.7-3.7,2.1
		c-6.7,2.2-7.9-12-7.2-18.9c0.2-1.8,0.8-3.4,2.2-4.4c2.1-1.5,5.9-3.5,8.2-4.8c1.6-0.9,3.7-0.3,4.7,1.7c1.1,2.1,2,4.5,2.2,6.8
		C160.9,83.8,160.4,87.8,158.6,91.3"/>
</g>
<rect x="202.2" y="0" class="st2" width="1.4" height="206.4"/>
</svg>
