<?xml version="1.0" encoding="utf-8"?>
<!-- Generator: Adobe Illustrator 19.2.1, SVG Export Plug-In . SVG Version: 6.00 Build 0)  -->
<svg version="1.1" id="Layer_1" xmlns="http://www.w3.org/2000/svg" xmlns:xlink="http://www.w3.org/1999/xlink" x="0px" y="0px"
	 viewBox="0 0 902.7 234.7" style="enable-background:new 0 0 902.7 234.7;" xml:space="preserve">
<style type="text/css">
	.st0{fill:#FFFFFF;}
</style>
<path class="st0" d="M121.6,78.5h0.7l21,72.3H98.9L121.6,78.5z M799.6,0l-33.5,138h-0.7L731.9,0h-359v125.5h-0.7L303.8,0h-73.9
	v200.1L157.1,0H86.4L0,234.6h72.6l10.5-33.5h74.6l9.9,33.5h62.3h12.6h55.8V106.5h0.7l72,128.2h70.3V60.1h57.9v174.5h72.3V60.1h57.6
	v174.5h68.4V84.1h0.7L739,234.6h53.9l40.7-150.5h0.7v150.5h68.4V0H799.6z"/>
</svg>
